<svg height="32" viewBox="0 0 32 32" fill="none" aria-labelledby="hy9v4urwukv7jm9deea3pfhq" class="AsyncIcon__StyledIcon-design-system__sc-9oyiwf-0 bvUoNw" focusable="false" preserveAspectRatio="xMidYMid meet"><title id="hy9v4urwukv7jm9deea3pfhq">Location</title><g clip-path="url(#location_svg__a)" stroke="#FFFFFF" stroke-width="2"><path clip-rule="evenodd" d="M16.5 5c2.352 0 4.483.91 6.026 2.389C24.052 8.85 25 10.87 25 13.104c0 3.08-2.941 7.23-8.5 12.521C10.94 20.333 8 16.183 8 13.105c0-2.234.948-4.254 2.474-5.716C12.017 5.91 14.148 5 16.5 5Z"></path><path d="M16.5 14a1 1 0 1 0 0-2 1 1 0 0 0 0 2Z"></path></g><defs><clipPath id="location_svg__a"><path fill="#FFFFFF" transform="translate(7 4)" d="M0 0h19v23H0z"></path></clipPath></defs></svg>